<svg xmlns="http://www.w3.org/2000/svg" viewBox="0 0 508 508"><circle cx="254" cy="254" r="254" fill="#fd8469"/><circle cx="254" cy="254" r="204.8" fill="#54c0eb"/><circle cx="254" cy="254" r="168.8" fill="#fff"/><g fill="#324a5e"><path d="M234 102h12v29.6h-6.4v-24H234V102zM264.8 113.6c.8-1.2 1.2-2 1.2-3.2 0-.8-.4-2-.8-2.4-.8-.8-1.6-1.2-2.4-1.2-2 0-3.6 1.2-5.2 4l-5.2-3.2c1.2-2 2.8-3.6 4.4-4.8 1.6-1.2 3.6-1.6 6.4-1.6 2.4 0 4.8.8 6.8 2.4s2.8 4 2.8 6.8c0 1.6-.4 3.2-1.2 4.4-.8 1.6-2.4 3.2-4.4 5.2l-5.2 5.6h11.6v6h-20.8v-4.8l8.8-8.8c1.2-2 2.4-3.6 3.2-4.4zM315.6 122h12v29.6h-6.4v-24h-5.6V122zM373.2 183.6c.8-1.2 1.2-2 1.2-3.2 0-.8-.4-2-.8-2.4-.8-.8-1.6-1.2-2.4-1.2-2 0-3.6 1.2-5.2 4l-5.6-2.8c1.2-2 2.8-3.6 4.4-4.8s3.6-1.6 6.4-1.6c2.4 0 4.8.8 6.8 2.4 2 1.6 2.8 4 2.8 6.8 0 1.6-.4 3.2-1.2 4.4-.8 1.6-2.4 3.2-4.4 5.2l-5.2 5.2h11.6v6h-20.8v-4.8l8.8-8.8c1.6-2 2.8-3.6 3.6-4.4zM380 244.8v-5.6h18.4v4.4l-6 6.8c2.4.4 4.4 1.2 5.6 3.2 1.2 1.6 2 3.6 2 5.6 0 3.2-1.2 5.6-3.2 7.2s-4.8 2.8-8 2.8-6.8-1.2-10-3.6l2.8-5.2c2.8 2 5.2 2.8 7.6 2.8 1.2 0 2.4-.4 3.2-.8.8-.8 1.2-1.6 1.2-2.8 0-1.2-.4-2.4-1.6-2.8-.8-.8-2.4-1.2-4-1.2-.8 0-2.4.4-4 .8v-4.8l5.6-6.8H380zM372 323.6v-5.2h6.4v5.2h3.6v5.6h-3.2v7.2h-6.4v-7.2h-12V324l10.4-17.6h7.2l-10 16.8h4v.4zM330.4 356v5.6h-11.6v4.8c.8-.4 2-.4 3.2-.4 2.8 0 5.2.8 7.6 2.4 2 1.6 3.2 4 3.2 6.8s-1.2 5.2-3.2 7.2-4.8 2.8-8 2.8c-4 0-7.2-1.6-10-4.4l3.6-4.8c.4.4.4.4 1.2.8.4.4 1.2.8 2.4 1.6s2.4.8 3.6.8 2-.4 3.2-1.2c.8-.8 1.2-1.6 1.2-3.2s-.4-2.4-1.6-3.2c-.8-.8-2-1.2-3.6-1.2s-3.2.4-5.2 1.6l-2.8-2.8v-14.4h16.8v1.2zM255.6 379.2c-2 0-3.2.8-4.4 2s-1.6 2.8-2 5.2c2-1.2 4-1.6 6-1.6 2.8 0 5.2.8 6.8 2.8 2 2 2.8 4.4 2.8 7.2 0 3.2-.8 5.6-2.8 7.2-2 2-4.4 2.8-7.6 2.8-2 0-4-.4-5.6-1.2s-2.8-2-3.6-3.2c-1.6-2.8-2.4-6.4-2.4-10.4 0-2.8.4-5.2.8-7.2.8-2 1.6-3.6 2.8-4.8 2.4-2.4 5.2-3.6 8.4-3.6 1.2 0 2.8.4 4 .8s2.4.8 2.8 1.2c.8.4 1.6.8 2.4 1.6l-2.8 4-.8-.8c-.4-.4-.8-.8-2-1.2-.8-.4-2-.8-2.8-.8zm-.8 10.8c-1.2 0-2.4.4-3.2 1.2-.8.8-1.2 1.6-1.2 3.2 0 1.2.4 2.4 1.2 3.2.8.8 2 1.2 3.2 1.2 1.2 0 2.4-.4 3.2-1.2.8-.8 1.2-2 1.2-3.2s-.4-2.4-1.2-3.2c-.8-.8-2-1.2-3.2-1.2zM175.6 365.6V356h21.6v5.2l-12 24.8H178l11.6-24H182v4h-6.4v-.4zM129.6 308.4c2-1.6 4.4-2.4 7.2-2.4s5.6.8 7.2 2.4c2 1.6 2.8 3.6 2.8 5.6 0 2.4-.8 4.4-2.8 6 2.4 2 3.6 4.4 3.6 7.6 0 2.8-1.2 4.8-3.2 6.4s-4.8 2.8-8.4 2.8c-3.2 0-6-.8-8.4-2.8-2-1.6-3.2-4-3.2-6.4 0-3.2 1.2-5.6 3.6-7.6-1.6-1.6-2.8-3.6-2.8-6 1.6-2 2.4-4 4.4-5.6zm4 22c.8.8 2 1.2 3.2 1.2s2.4-.4 3.2-1.2c.8-.8 1.6-1.6 1.6-2.8 0-1.2-.4-2.4-1.6-2.8-.8-.8-2-1.2-3.2-1.2s-2.4.4-3.2 1.2c-.8.8-1.6 1.6-1.6 2.8.4 1.2.8 2 1.6 2.8zm.4-13.2c.8.8 1.6 1.2 2.8 1.2s2-.4 2.8-1.2c.8-.8 1.2-1.6 1.2-2.4 0-1.2-.4-2-1.2-2.4-.8-.8-1.6-1.2-2.8-1.2s-2 .4-2.8 1.2c-.8.8-1.2 1.6-1.2 2.4 0 1.2.4 2 1.2 2.4zM117.2 263.6c2 0 3.2-.8 4.4-2 1.2-1.2 1.6-2.8 2-5.2-2 1.2-3.6 2-6 2-2.8 0-5.2-.8-6.8-2.8-2-2-2.8-4.4-2.8-7.2 0-3.2 1.2-5.6 3.2-7.2 2-2 4.4-2.8 7.6-2.8 2 0 4 .4 5.6 1.2s2.8 2 3.6 3.2c1.6 2.8 2.4 6.4 2.4 10.4 0 2.8-.4 5.2-1.2 7.2s-1.6 3.6-2.8 4.8c-2.4 2.4-5.2 3.6-8.4 3.6-1.2 0-2.8-.4-4-.8s-2.4-.8-2.8-1.2c-.8-.4-1.6-.8-2.4-1.6l3.2-4.8.8.8c.4.4.8.8 2 1.2.8 1.2 1.6 1.2 2.4 1.2zm1.2-10.8c1.2 0 2.4-.4 3.2-1.2.8-.8 1.2-1.6 1.2-3.2 0-1.2-.4-2.4-1.2-3.2-.8-.8-2-1.2-3.2-1.2s-2.4.4-3.2 1.2c-.8.8-1.2 2-1.2 3.2s.4 2.4 1.2 3.2c.8.8 1.6 1.2 3.2 1.2zM115.6 171.6h12v29.6h-6.4v-24h-5.6v-5.6zM146 202c-4 0-7.2-1.2-9.2-4s-3.2-6.4-3.2-11.2 1.2-8.4 3.2-11.2 5.2-4 9.2-4 7.2 1.2 9.2 4 3.2 6.4 3.2 11.2-1.2 8.4-3.2 11.2c-2 2.4-4.8 4-9.2 4zm-4.4-22.8c-.8 2-1.6 4.4-1.6 7.2s.4 5.2 1.6 7.2c.8 2 2.4 2.8 4.4 2.8s3.6-.8 4.4-2.8c.8-2 1.2-4.4 1.2-7.2s-.4-5.2-1.2-7.2-2.4-2.8-4.4-2.8-3.2 1.2-4.4 2.8zM172 122h12v29.6h-6.4v-24H172V122zM189.2 122h12v29.6h-6.4v-24h-5.6V122z"/></g><path d="M180.8 328.8c-.4 0-.8 0-1.2-.4-.8-.8-.8-2 0-2.4l73.2-73.2c.8-.8 2-.8 2.4 0 .8.8.8 2 0 2.4L182 328.4c-.4.4-.8.4-1.2.4z" fill="#ff7058"/><path d="M254 257.6c-2 0-3.6-1.6-3.6-3.6v-98c0-2 1.6-3.6 3.6-3.6s3.6 1.6 3.6 3.6v98c0 2-1.6 3.6-3.6 3.6z" fill="#2b3b4e"/><path d="M336 258.4l-82-.8c-2 0-3.6-1.6-3.6-3.6s1.6-3.6 3.6-3.6l82 1.2c2 0 3.6 1.6 3.6 3.6 0 1.6-1.6 3.2-3.6 3.2z" fill="#2b3b4e"/><circle cx="254" cy="254" r="8.8" fill="#324a5e"/></svg>