<svg id="Capa_1" xmlns="http://www.w3.org/2000/svg" viewBox="0 0 512 304"><style>.st0{fill:#ffc107}.st1{fill:#f44336}.st2{fill:#fafafa}.st3{fill:#455a64}</style><path class="st0" d="M128 57c0-8.8-7.2-16-16-16H16C7.2 41 0 48.2 0 57s7.2 16 16 16h96c8.8 0 16-7.2 16-16zM112 105H48c-8.8 0-16 7.2-16 16s7.2 16 16 16h64c8.8 0 16-7.2 16-16s-7.2-16-16-16zM112 169H80c-8.8 0-16 7.2-16 16s7.2 16 16 16h32c8.8 0 16-7.2 16-16s-7.2-16-16-16z"/><path class="st1" d="M509.7 160.8l-48-80C458.8 76 453.6 73 448 73H336c-8.8 0-16 7.2-16 16v160c0 8.8 7.2 16 16 16h160c8.8 0 16-7.2 16-16v-80c0-2.9-.8-5.8-2.3-8.2z"/><path class="st2" d="M384 105h54.9l38.4 64H384z"/><path class="st0" d="M336 9H112c-8.8 0-16 7.2-16 16v224c0 8.8 7.2 16 16 16h240V25c0-8.8-7.2-16-16-16z"/><circle class="st2" cx="432" cy="249" r="32"/><path class="st3" d="M432 297c-26.5 0-48-21.5-48-48s21.5-48 48-48 48 21.5 48 48-21.5 48-48 48zm0-64c-8.8 0-16 7.2-16 16s7.2 16 16 16 16-7.2 16-16-7.2-16-16-16z"/><path class="st1" d="M352 265H112c-8.8 0-16-7.2-16-16v-48h256v64z"/><circle class="st2" cx="208" cy="249" r="32"/><path class="st3" d="M208 297c-26.5 0-48-21.5-48-48s21.5-48 48-48 48 21.5 48 48-21.5 48-48 48zm0-64c-8.8 0-16 7.2-16 16s7.2 16 16 16 16-7.2 16-16-7.2-16-16-16z"/></svg>